<?xml version="1.0" encoding="UTF-8" standalone="no"?>
<!-- Generator: Adobe Illustrator 19.1.1, SVG Export Plug-In . SVG Version: 6.00 Build 0)  -->

<svg
   xmlns:dc="http://purl.org/dc/elements/1.1/"
   xmlns:cc="http://creativecommons.org/ns#"
   xmlns:rdf="http://www.w3.org/1999/02/22-rdf-syntax-ns#"
   xmlns:svg="http://www.w3.org/2000/svg"
   xmlns="http://www.w3.org/2000/svg"
   xmlns:sodipodi="http://sodipodi.sourceforge.net/DTD/sodipodi-0.dtd"
   xmlns:inkscape="http://www.inkscape.org/namespaces/inkscape"
   version="1.1"
   x="0px"
   y="0px"
   viewBox="0 0 48 28"
   xml:space="preserve"
   id="svg4"
   sodipodi:docname="gm_canvasresized.svg"
   width="48"
   height="28"
   inkscape:version="0.92.3 (2405546, 2018-03-11)"><metadata
   id="metadata10"><rdf:RDF><cc:Work
       rdf:about=""><dc:format>image/svg+xml</dc:format><dc:type
         rdf:resource="http://purl.org/dc/dcmitype/StillImage" /><dc:title></dc:title></cc:Work></rdf:RDF></metadata><defs
   id="defs8" /><sodipodi:namedview
   pagecolor="#ffffff"
   bordercolor="#666666"
   borderopacity="1"
   objecttolerance="10"
   gridtolerance="10"
   guidetolerance="10"
   inkscape:pageopacity="0"
   inkscape:pageshadow="2"
   inkscape:window-width="1920"
   inkscape:window-height="1017"
   id="namedview6"
   showgrid="false"
   fit-margin-top="0"
   fit-margin-left="0"
   fit-margin-right="0"
   fit-margin-bottom="0"
   inkscape:zoom="11.313709"
   inkscape:cx="24.661274"
   inkscape:cy="13.976737"
   inkscape:window-x="-8"
   inkscape:window-y="-8"
   inkscape:window-maximized="1"
   inkscape:current-layer="svg4" />
<path
   style="fill:#8bc34a"
   d="m 20.942,28 h -1.695 c -1.986,0 -3.833,-1.083 -4.819,-2.826 L 8,14 16.025,0 h 8.321 l -7.44,14.016 0.097,0.055 3.459,5.929 h 4.943 z M 11.065,4.632 8.888,0.843 C 8.574,0.319 8.016,0 7.415,0 H 0 L 6.849,11.986 Z M 33.497,2.826 C 32.511,1.083 30.665,0 28.677,0 H 26.61 l -4.247,8 h 5.099 L 31,14 23.232,28 h 8.667 L 40,14 Z m 7.651,13.183 -4.235,7.32 2.199,3.828 C 39.426,27.681 39.984,28 40.585,28 H 48 Z"
   id="path2"
   inkscape:connector-curvature="0" />
</svg>