<?xml version="1.0" encoding="UTF-8" standalone="no"?>
<!-- Generator: Adobe Illustrator 14.0.0, SVG Export Plug-In . SVG Version: 6.00 Build 43363)  -->

<svg
   xmlns:dc="http://purl.org/dc/elements/1.1/"
   xmlns:cc="http://creativecommons.org/ns#"
   xmlns:rdf="http://www.w3.org/1999/02/22-rdf-syntax-ns#"
   xmlns:svg="http://www.w3.org/2000/svg"
   xmlns="http://www.w3.org/2000/svg"
   xmlns:sodipodi="http://sodipodi.sourceforge.net/DTD/sodipodi-0.dtd"
   xmlns:inkscape="http://www.inkscape.org/namespaces/inkscape"
   xml:space="preserve"
   height="150"
   viewBox="0 0 300 150.00001"
   width="300"
   version="1.1"
   y="0px"
   x="0px"
   enable-background="new 0 0 566.93 283.46"
   id="svg4136"
   inkscape:version="0.92.3 (2405546, 2018-03-11)"
   sodipodi:docname="qt-companyBigger.svg"><defs
     id="defs4206" /><sodipodi:namedview
     pagecolor="#ffffff"
     bordercolor="#666666"
     borderopacity="1"
     objecttolerance="10"
     gridtolerance="10"
     guidetolerance="10"
     inkscape:pageopacity="0"
     inkscape:pageshadow="2"
     inkscape:window-width="1920"
     inkscape:window-height="1017"
     id="namedview4204"
     showgrid="true"
     inkscape:snap-bbox="true"
     inkscape:bbox-nodes="true"
     inkscape:zoom="4.9133334"
     inkscape:cx="141.80968"
     inkscape:cy="70.773225"
     inkscape:window-x="-8"
     inkscape:window-y="-8"
     inkscape:window-maximized="1"
     inkscape:current-layer="svg4136"
     inkscape:measure-start="80,85"
     inkscape:measure-end="212.132,85"><inkscape:grid
       type="xygrid"
       id="grid4243" /></sodipodi:namedview><metadata
     id="metadata4138"><rdf:RDF><cc:Work
         rdf:about=""><dc:format>image/svg+xml</dc:format><dc:type
           rdf:resource="http://purl.org/dc/dcmitype/StillImage" /><dc:title></dc:title></cc:Work></rdf:RDF></metadata><g
     transform="translate(0 -133)"
     display="none"
     id="g4140"><g
       display="inline"
       id="g4142"><path
         d="m376 133c-1.05 2.5 0.119 5.38 2.62 6.43-2.5-1.05-5.38 0.119-6.43 2.62 1.05-2.5-0.119-5.38-2.62-6.43 2.5 1.05 5.38-0.117 6.43-2.62z"
         id="path4144" /><path
         d="m325 115c-1.05 2.5 0.119 5.38 2.62 6.43-2.5-1.05-5.38 0.118-6.43 2.61 1.05-2.5-0.117-5.38-2.62-6.43 2.5 1.05 5.38-0.118 6.43-2.62z"
         id="path4146" /><path
         d="m286 118c-1.05 2.5 0.118 5.38 2.62 6.43-2.5-1.05-5.38 0.119-6.43 2.62 1.05-2.5-0.121-5.38-2.62-6.43 2.5 1.05 5.38-0.117 6.43-2.62z"
         id="path4148" /><path
         d="m239 125c-1.06 2.5 0.116 5.38 2.62 6.43-2.5-1.05-5.38 0.118-6.43 2.62 1.05-2.5-0.119-5.38-2.62-6.43 2.5 1.05 5.38-0.118 6.43-2.62z"
         id="path4150" /><path
         d="m221 156c-1.05 2.5 0.119 5.38 2.62 6.43-2.5-1.06-5.38 0.117-6.43 2.61 1.05-2.5-0.118-5.38-2.62-6.43 2.5 1.05 5.38-0.116 6.43-2.62z"
         id="path4152" /><path
         d="m174 147c-1.05 2.5 0.119 5.38 2.62 6.43-2.5-1.05-5.38 0.118-6.43 2.62 1.05-2.5-0.121-5.38-2.62-6.43 2.5 1.05 5.38-0.117 6.43-2.62z"
         id="path4154" /><path
         d="m172 107c-1.05 2.5 0.119 5.38 2.62 6.43-2.5-1.05-5.38 0.12-6.43 2.62 1.05-2.5-0.118-5.38-2.62-6.43 2.5 1.05 5.38-0.117 6.43-2.62z"
         id="path4156" /><path
         d="m245 147-1.25 7c0.92-0.658 2.37-0.921 3.12-0.921 4.37 0 6.67 3.25 6.67 7.16 0 9.99-9.66 12-17 8.97l3.91-22.2h4.5zm-3.45 19.3c0.789 0.296 1.58 0.362 2.3 0.362 3.16-0.033 5.19-2.73 5.19-5.95 0-2.5-1.44-3.68-3.58-3.68-0.625 0-1.54 0.164-2.33 0.658l-1.58 8.61z"
         id="path4158" /><path
         d="m261 171c-3.88 0.624-6.67-0.756-5.85-5.36l3.12-17.7h4.5l-3.12 17.7c-0.164 0.854 0.098 1.84 2 1.68l-0.656 3.68z"
         id="path4160" /><path
         d="m263 163 1.71-9.63h4.5l-1.68 9.43c-0.592 3.32 2.53 4.47 5.85 3.45l2.27-12.9h4.5l-2.79 15.9c-6.31 2.33-15.8 1.97-14.4-6.31z"
         id="path4162" /><path
         d="m295 168c-2.4 2.2-4.77 3.12-7.2 3.12-4.9 0-7.13-3.55-7.13-7.26 0-4.9 3.94-10.1 10.2-10.1 4.24-0.033 6.97 2.66 6.97 6.74 0 1.58-0.395 2.63-1.05 3.71h-11.7c-0.065 3.75 4.7 3.98 7.86 1.54l2.14 2.24zm-1.54-7.23c0.197-2.4-1.58-3.12-3.29-3.12-1.74 0-3.78 0.887-4.54 3.12h7.82z"
         id="path4164" /><g
         fill="#58595b"
         id="g4166"><path
           d="m310 165c0 3.65-3.88 5.39-6.54 5.39-1.97 0-3.71-0.821-4.67-2.4 0.395-0.328 0.888-0.756 1.22-1.05 1.51 2.76 7.23 2.66 8.25-1.38 0.296-1.87-1.81-2.83-3.25-3.12-2.46-0.428-4.57-1.78-4.11-4.5 0.854-4.9 7.76-6.11 10.4-3.16l-1.22 1.12c-1.84-2.17-7.53-1.31-7.53 2.37 0 1.68 1.77 2.4 3.06 2.66 2.27 0.492 4.4 1.68 4.4 4.08z"
           id="path4168" /><path
           d="m311 175c1.87 0.066 2.76-0.592 3.52-1.94l1.41-2.53-3.88-16.7h1.84l3.25 15 8.25-15h1.84l-11.2 19.8c-1.22 2.24-2.89 2.79-4.77 2.79h-0.525l0.262-1.42z"
           id="path4170" /><path
           d="m336 165c0 3.65-3.88 5.39-6.54 5.39-1.97 0-3.72-0.821-4.67-2.4 0.395-0.328 0.888-0.756 1.22-1.05 1.51 2.76 7.23 2.66 8.25-1.38 0.296-1.87-1.81-2.83-3.25-3.12-2.46-0.428-4.57-1.78-4.11-4.5 0.854-4.9 7.76-6.11 10.4-3.16l-1.22 1.12c-1.84-2.17-7.53-1.31-7.53 2.37 0 1.68 1.78 2.4 3.06 2.66 2.27 0.492 4.4 1.68 4.4 4.08z"
           id="path4172" /><path
           d="m343 171c-2.93 0.133-4.83-1.41-4.24-4.67l1.87-10.7h-2.47l0.264-1.41h2.46l0.689-4.08 1.74-0.362-0.756 4.44h3.39l-0.264 1.41h-3.38l-1.87 10.7c-0.362 1.97 0.723 3.15 2.86 3.12l-0.295 1.54z"
           id="path4174" /><path
           d="m358 167 1.12 0.888c-1.91 1.94-4.34 2.89-6.84 2.89-5.36 0-7.26-4.57-6.51-8.71 0.756-4.17 4.27-8.38 9.5-8.41 4.01-0.032 6.48 2.89 6.48 6.7 0 1.68-0.296 1.94-0.395 2.37h-14.1c-0.395 3.65 1.38 6.44 5.32 6.44 1.88 0 3.98-0.689 5.42-2.17zm2.14-5.72c0.461-3.58-1.68-5.98-5.13-6.05-3.88 0.033-6.48 2.7-7.53 6.05h12.7z"
           id="path4176" /><path
           d="m376 157c1.94-2.93 4.21-3.39 6.41-3.39 3.58 0 6.15 1.94 5.26 7l-1.74 9.93h-1.71l1.74-9.93c0.689-3.88-1.28-5.46-3.81-5.46-2.6 0-5.19 1.18-5.92 5.13l-1.81 10.3h-1.64l1.81-10.3c1.18-5-4.64-6.15-8.71-4.64l-2.63 14.9h-1.71l2.83-16.1c3.68-1.41 10.6-1.71 11.6 2.53z"
           id="path4178" /><path
           d="m400 165c0 3.65-3.88 5.39-6.54 5.39-1.97 0-3.71-0.822-4.67-2.4 0.393-0.328 0.887-0.756 1.22-1.05 1.51 2.76 7.23 2.66 8.25-1.38 0.297-1.87-1.81-2.83-3.25-3.12-2.46-0.427-4.57-1.77-4.11-4.5 0.854-4.9 7.76-6.11 10.4-3.16l-1.22 1.12c-1.84-2.17-7.53-1.31-7.53 2.37 0 1.68 1.78 2.4 3.06 2.66 2.27 0.493 4.4 1.68 4.4 4.08z"
           id="path4180" /></g></g><rect
       display="inline"
       height="28.3"
       width="28.3"
       y="10"
       x="539"
       id="rect4182" /><rect
       display="inline"
       height="28.3"
       width="28.3"
       y="40.3"
       x="539"
       fill="#58595b"
       id="rect4184" /></g><g
     transform="matrix(1.6062872,0,0,1.6062872,200.06805,-777.38258)"
     id="g126"><path
       style="fill:#41cd52;stroke-width:1.02086055"
       inkscape:connector-curvature="0"
       id="path4190"
       d="m -81.392559,484.36776 h 109.49636 v 75.65704 l -17.607455,17.60745 h -109.49636 v -75.93214 c 5.804958,-5.72243 11.637427,-11.52739 17.469896,-17.33235 z" /><path
       style="fill:#ffffff;stroke-width:1.02086055"
       inkscape:connector-curvature="0"
       id="path4192"
       d="m -65.298245,503.98357 c 4.401863,-2.75117 9.353961,-3.43895 14.306057,-3.38393 4.649468,0.0578 9.546542,0.87487 13.425685,3.65905 2.806188,1.97258 4.621957,5.00712 5.832469,8.17096 1.967082,5.17219 2.544827,10.75705 2.610855,16.25938 0.0083,5.52984 -0.242102,11.19724 -2.074378,16.45197 -1.227019,3.57651 -3.576514,6.76787 -6.657818,8.9963 2.217438,3.60403 4.484398,7.15304 6.685329,10.75706 -2.778676,1.2848 -5.557352,2.57784 -8.36354,3.85163 -2.374255,-3.90665 -4.732004,-7.84082 -7.125518,-11.74747 -3.218862,0.52822 -6.52026,0.48695 -9.766634,0.1293 -3.879143,-0.46495 -7.840821,-1.64794 -10.83959,-4.26431 -2.299973,-1.99184 -3.741584,-4.78702 -4.732004,-7.62072 -1.617684,-4.78703 -2.052369,-9.9042 -2.126649,-14.91131 -0.03852,-5.44731 0.30813,-10.94964 1.947824,-16.17685 1.268286,-3.93416 3.356421,-7.84082 6.905424,-10.12429 z" /><path
       style="fill:#ffffff;stroke-width:1.02086055"
       inkscape:connector-curvature="0"
       id="path4194"
       d="m -17.97821,503.8185 c 2.916235,-0.003 5.83247,-0.003 8.7487044,0 0.00825,3.85163 -0.00275,7.70327 0.0055,11.55489 3.7415842,0.005 7.4556567,0 11.1697292,0.003 -0.063277,2.50356 -0.1320558,5.00712 -0.2035862,7.51068 -3.7140725,0.008 -7.4556567,-0.003 -11.1697292,0.005 0.00825,6.32768 -0.019259,12.65537 0.013756,18.95553 0.071531,1.73049 0.033014,3.54901 0.7950866,5.14468 0.5557353,1.23252 2.0523689,1.5489 3.2738861,1.59018 2.2972227,-0.008 4.59444527,-0.14307 6.8779122,-0.18434 0.1403094,2.29998 0.2751165,4.59445 0.4071723,6.90543 -4.5669336,0.76757 -9.3539604,1.68646 -13.8933824,0.25035 -1.912061,-0.56674 -3.686561,-1.83503 -4.456886,-3.71407 -1.389341,-3.21887 -1.502136,-6.79538 -1.562662,-10.23433 -0.0055,-6.24515 0,-12.46278 -0.0028,-18.70792 -2.033111,-0.005 -4.071724,0.003 -6.107586,-0.005 -0.0055,-2.50081 -0.0055,-5.00712 0,-7.51067 2.033111,-0.008 4.071723,0.003 6.107586,-0.005 0.0083,-3.85163 -0.0028,-7.70326 0.0055,-11.55489 z" /><path
       style="fill:#41cd52;stroke-width:1.02086055"
       inkscape:connector-curvature="0"
       id="path4196"
       d="m -54.568702,508.49548 c 2.833699,-0.36866 5.804958,-0.26961 8.473588,0.80059 2.170669,0.85837 4.0167,2.53932 4.979607,4.67698 1.493884,3.21886 2.066126,6.79537 2.354998,10.31686 0.313633,4.67698 0.269614,9.40899 -0.37691,14.05846 -0.453942,2.77868 -1.100466,5.69491 -2.971257,7.86833 -1.903807,2.19268 -4.842051,3.13633 -7.648239,3.35643 -2.971257,0.21734 -6.107586,0 -8.776215,-1.40585 -1.565413,-0.83361 -2.888724,-2.14041 -3.65905,-3.74159 -0.940899,-1.91756 -1.458118,-4.0167 -1.821271,-6.10758 -1.094963,-6.65782 -1.359075,-13.53573 0.137558,-20.13853 0.616261,-2.49255 1.513141,-5.06214 3.328909,-6.93294 1.584672,-1.60942 3.796608,-2.44028 5.99754,-2.75116 z" /></g></svg>