<?xml version="1.0" encoding="UTF-8" standalone="no"?>
<!-- Generator: Adobe Illustrator 14.0.0, SVG Export Plug-In . SVG Version: 6.00 Build 43363)  -->

<svg
   xmlns:dc="http://purl.org/dc/elements/1.1/"
   xmlns:cc="http://creativecommons.org/ns#"
   xmlns:rdf="http://www.w3.org/1999/02/22-rdf-syntax-ns#"
   xmlns:svg="http://www.w3.org/2000/svg"
   xmlns="http://www.w3.org/2000/svg"
   xmlns:sodipodi="http://sodipodi.sourceforge.net/DTD/sodipodi-0.dtd"
   xmlns:inkscape="http://www.inkscape.org/namespaces/inkscape"
   xml:space="preserve"
   height="149.81055"
   viewBox="0 0 204.16602 149.81056"
   width="204.16602"
   version="1.1"
   y="0px"
   x="0px"
   enable-background="new 0 0 566.93 283.46"
   id="svg4136"
   inkscape:version="0.92.3 (2405546, 2018-03-11)"
   sodipodi:docname="qt-monocolor.svg"><defs
     id="defs4206" /><sodipodi:namedview
     pagecolor="#ffffff"
     bordercolor="#666666"
     borderopacity="1"
     objecttolerance="10"
     gridtolerance="10"
     guidetolerance="10"
     inkscape:pageopacity="0"
     inkscape:pageshadow="2"
     inkscape:window-width="1920"
     inkscape:window-height="1017"
     id="namedview4204"
     showgrid="true"
     inkscape:snap-bbox="true"
     inkscape:bbox-nodes="true"
     inkscape:zoom="3.4742514"
     inkscape:cx="120.6945"
     inkscape:cy="79.595893"
     inkscape:window-x="-8"
     inkscape:window-y="-8"
     inkscape:window-maximized="1"
     inkscape:current-layer="svg4136"
     inkscape:measure-start="80,85"
     inkscape:measure-end="212.132,85"
     inkscape:pagecheckerboard="false"
     fit-margin-top="0"
     fit-margin-left="0"
     fit-margin-right="0"
     fit-margin-bottom="0"><inkscape:grid
       type="xygrid"
       id="grid4243"
       originx="-40.79297"
       originy="0.0058600005" /></sodipodi:namedview><metadata
     id="metadata4138"><rdf:RDF><cc:Work
         rdf:about=""><dc:format>image/svg+xml</dc:format><dc:type
           rdf:resource="http://purl.org/dc/dcmitype/StillImage" /><dc:title></dc:title></cc:Work></rdf:RDF></metadata><g
     transform="translate(-40.792969,-133.19531)"
     display="none"
     id="g4140"
     style="display:none"><g
       display="inline"
       id="g4142"
       style="display:inline"><path
         d="m 376,133 c -1.05,2.5 0.119,5.38 2.62,6.43 -2.5,-1.05 -5.38,0.119 -6.43,2.62 1.05,-2.5 -0.119,-5.38 -2.62,-6.43 2.5,1.05 5.38,-0.117 6.43,-2.62 z"
         id="path4144"
         inkscape:connector-curvature="0" /><path
         d="m 325,115 c -1.05,2.5 0.119,5.38 2.62,6.43 -2.5,-1.05 -5.38,0.118 -6.43,2.61 1.05,-2.5 -0.117,-5.38 -2.62,-6.43 2.5,1.05 5.38,-0.118 6.43,-2.62 z"
         id="path4146"
         inkscape:connector-curvature="0" /><path
         d="m 286,118 c -1.05,2.5 0.118,5.38 2.62,6.43 -2.5,-1.05 -5.38,0.119 -6.43,2.62 1.05,-2.5 -0.121,-5.38 -2.62,-6.43 2.5,1.05 5.38,-0.117 6.43,-2.62 z"
         id="path4148"
         inkscape:connector-curvature="0" /><path
         d="m 239,125 c -1.06,2.5 0.116,5.38 2.62,6.43 -2.5,-1.05 -5.38,0.118 -6.43,2.62 1.05,-2.5 -0.119,-5.38 -2.62,-6.43 2.5,1.05 5.38,-0.118 6.43,-2.62 z"
         id="path4150"
         inkscape:connector-curvature="0" /><path
         d="m 221,156 c -1.05,2.5 0.119,5.38 2.62,6.43 -2.5,-1.06 -5.38,0.117 -6.43,2.61 1.05,-2.5 -0.118,-5.38 -2.62,-6.43 2.5,1.05 5.38,-0.116 6.43,-2.62 z"
         id="path4152"
         inkscape:connector-curvature="0" /><path
         d="m 174,147 c -1.05,2.5 0.119,5.38 2.62,6.43 -2.5,-1.05 -5.38,0.118 -6.43,2.62 1.05,-2.5 -0.121,-5.38 -2.62,-6.43 2.5,1.05 5.38,-0.117 6.43,-2.62 z"
         id="path4154"
         inkscape:connector-curvature="0" /><path
         d="m 172,107 c -1.05,2.5 0.119,5.38 2.62,6.43 -2.5,-1.05 -5.38,0.12 -6.43,2.62 1.05,-2.5 -0.118,-5.38 -2.62,-6.43 2.5,1.05 5.38,-0.117 6.43,-2.62 z"
         id="path4156"
         inkscape:connector-curvature="0" /><path
         d="m 245,147 -1.25,7 c 0.92,-0.658 2.37,-0.921 3.12,-0.921 4.37,0 6.67,3.25 6.67,7.16 0,9.99 -9.66,12 -17,8.97 l 3.91,-22.2 h 4.5 z m -3.45,19.3 c 0.789,0.296 1.58,0.362 2.3,0.362 3.16,-0.033 5.19,-2.73 5.19,-5.95 0,-2.5 -1.44,-3.68 -3.58,-3.68 -0.625,0 -1.54,0.164 -2.33,0.658 z"
         id="path4158"
         inkscape:connector-curvature="0" /><path
         d="m 261,171 c -3.88,0.624 -6.67,-0.756 -5.85,-5.36 l 3.12,-17.7 h 4.5 l -3.12,17.7 c -0.164,0.854 0.098,1.84 2,1.68 l -0.656,3.68 z"
         id="path4160"
         inkscape:connector-curvature="0" /><path
         d="m 263,163 1.71,-9.63 h 4.5 l -1.68,9.43 c -0.592,3.32 2.53,4.47 5.85,3.45 l 2.27,-12.9 h 4.5 l -2.79,15.9 c -6.31,2.33 -15.8,1.97 -14.4,-6.31 z"
         id="path4162"
         inkscape:connector-curvature="0" /><path
         d="m 295,168 c -2.4,2.2 -4.77,3.12 -7.2,3.12 -4.9,0 -7.13,-3.55 -7.13,-7.26 0,-4.9 3.94,-10.1 10.2,-10.1 4.24,-0.033 6.97,2.66 6.97,6.74 0,1.58 -0.395,2.63 -1.05,3.71 h -11.7 c -0.065,3.75 4.7,3.98 7.86,1.54 l 2.14,2.24 z m -1.54,-7.23 c 0.197,-2.4 -1.58,-3.12 -3.29,-3.12 -1.74,0 -3.78,0.887 -4.54,3.12 h 7.82 z"
         id="path4164"
         inkscape:connector-curvature="0" /><g
         id="g4166"
         style="fill:#58595b"><path
           d="m 310,165 c 0,3.65 -3.88,5.39 -6.54,5.39 -1.97,0 -3.71,-0.821 -4.67,-2.4 0.395,-0.328 0.888,-0.756 1.22,-1.05 1.51,2.76 7.23,2.66 8.25,-1.38 0.296,-1.87 -1.81,-2.83 -3.25,-3.12 -2.46,-0.428 -4.57,-1.78 -4.11,-4.5 0.854,-4.9 7.76,-6.11 10.4,-3.16 l -1.22,1.12 c -1.84,-2.17 -7.53,-1.31 -7.53,2.37 0,1.68 1.77,2.4 3.06,2.66 2.27,0.492 4.4,1.68 4.4,4.08 z"
           id="path4168"
           inkscape:connector-curvature="0" /><path
           d="m 311,175 c 1.87,0.066 2.76,-0.592 3.52,-1.94 l 1.41,-2.53 -3.88,-16.7 h 1.84 l 3.25,15 8.25,-15 h 1.84 l -11.2,19.8 c -1.22,2.24 -2.89,2.79 -4.77,2.79 h -0.525 l 0.262,-1.42 z"
           id="path4170"
           inkscape:connector-curvature="0" /><path
           d="m 336,165 c 0,3.65 -3.88,5.39 -6.54,5.39 -1.97,0 -3.72,-0.821 -4.67,-2.4 0.395,-0.328 0.888,-0.756 1.22,-1.05 1.51,2.76 7.23,2.66 8.25,-1.38 0.296,-1.87 -1.81,-2.83 -3.25,-3.12 -2.46,-0.428 -4.57,-1.78 -4.11,-4.5 0.854,-4.9 7.76,-6.11 10.4,-3.16 l -1.22,1.12 c -1.84,-2.17 -7.53,-1.31 -7.53,2.37 0,1.68 1.78,2.4 3.06,2.66 2.27,0.492 4.4,1.68 4.4,4.08 z"
           id="path4172"
           inkscape:connector-curvature="0" /><path
           d="m 343,171 c -2.93,0.133 -4.83,-1.41 -4.24,-4.67 l 1.87,-10.7 h -2.47 l 0.264,-1.41 h 2.46 l 0.689,-4.08 1.74,-0.362 -0.756,4.44 h 3.39 l -0.264,1.41 h -3.38 l -1.87,10.7 c -0.362,1.97 0.723,3.15 2.86,3.12 l -0.295,1.54 z"
           id="path4174"
           inkscape:connector-curvature="0" /><path
           d="m 358,167 1.12,0.888 c -1.91,1.94 -4.34,2.89 -6.84,2.89 -5.36,0 -7.26,-4.57 -6.51,-8.71 0.756,-4.17 4.27,-8.38 9.5,-8.41 4.01,-0.032 6.48,2.89 6.48,6.7 0,1.68 -0.296,1.94 -0.395,2.37 h -14.1 c -0.395,3.65 1.38,6.44 5.32,6.44 1.88,0 3.98,-0.689 5.42,-2.17 z m 2.14,-5.72 c 0.461,-3.58 -1.68,-5.98 -5.13,-6.05 -3.88,0.033 -6.48,2.7 -7.53,6.05 h 12.7 z"
           id="path4176"
           inkscape:connector-curvature="0" /><path
           d="m 376,157 c 1.94,-2.93 4.21,-3.39 6.41,-3.39 3.58,0 6.15,1.94 5.26,7 l -1.74,9.93 h -1.71 l 1.74,-9.93 c 0.689,-3.88 -1.28,-5.46 -3.81,-5.46 -2.6,0 -5.19,1.18 -5.92,5.13 l -1.81,10.3 h -1.64 l 1.81,-10.3 c 1.18,-5 -4.64,-6.15 -8.71,-4.64 l -2.63,14.9 h -1.71 l 2.83,-16.1 c 3.68,-1.41 10.6,-1.71 11.6,2.53 z"
           id="path4178"
           inkscape:connector-curvature="0" /><path
           d="m 400,165 c 0,3.65 -3.88,5.39 -6.54,5.39 -1.97,0 -3.71,-0.822 -4.67,-2.4 0.393,-0.328 0.887,-0.756 1.22,-1.05 1.51,2.76 7.23,2.66 8.25,-1.38 0.297,-1.87 -1.81,-2.83 -3.25,-3.12 -2.46,-0.427 -4.57,-1.77 -4.11,-4.5 0.854,-4.9 7.76,-6.11 10.4,-3.16 l -1.22,1.12 c -1.84,-2.17 -7.53,-1.31 -7.53,2.37 0,1.68 1.78,2.4 3.06,2.66 2.27,0.493 4.4,1.68 4.4,4.08 z"
           id="path4180"
           inkscape:connector-curvature="0" /></g></g><rect
       display="inline"
       height="28.299999"
       width="28.299999"
       y="10"
       x="539"
       id="rect4182"
       style="display:inline" /><rect
       display="inline"
       height="28.299999"
       width="28.299999"
       y="40.299999"
       x="539"
       id="rect4184"
       style="display:inline;fill:#58595b" /></g><path
     style="fill:#41cd52;stroke-width:1.63979518"
     d="M 28.0625,0 C 18.69388,9.3244329 9.324429,18.64993 0,27.841796 V 149.81055 h 175.88281 l 28.2832,-28.2832 V 0 H 28.283203 Z m 49.052731,26.074218 c 7.46838,0.09284 15.33539,1.404761 21.56641,5.876953 4.507539,3.16853 7.422759,8.042964 9.367189,13.125 3.1597,8.308023 4.08925,17.278865 4.19531,26.117188 0.0133,8.882511 -0.38886,17.985176 -3.33203,26.425781 -1.97094,5.7449 -5.74586,10.87168 -10.695309,14.45117 3.561839,5.78912 7.202959,11.49021 10.738279,17.2793 -4.46335,2.06376 -8.92606,4.14143 -13.433599,6.1875 -3.81374,-6.2752 -7.60064,-12.59589 -11.44531,-18.87109 -5.17042,0.84848 -10.47484,0.78346 -15.68945,0.20898 -6.23102,-0.74685 -12.593275,-2.64697 -17.410159,-6.84961 C 47.282144,106.82592 44.965899,102.33494 43.375,97.783203 40.776535,90.093858 40.078299,81.874888 39.958984,73.832031 39.897114,65.082087 40.45407,56.244057 43.08789,47.847656 45.125121,41.528266 48.478969,35.251892 54.179687,31.583984 l -0.04492,-0.07422 c 7.070656,-4.41917 15.025976,-5.523925 22.980466,-5.435547 z m 53.029299,5.169922 c 4.68431,-0.0048 9.36842,-0.0048 14.05273,0 0.0133,6.186825 -0.003,12.373739 0.01,18.560547 6.01006,0.008 11.97554,-8.94e-4 17.94141,0.0039 -0.10164,4.021436 -0.21128,8.043016 -0.32618,12.064453 -5.96586,0.01285 -11.97553,-0.005 -17.9414,0.0078 0.0132,10.164071 -0.0315,20.329353 0.0215,30.449219 0.1149,2.779663 0.0532,5.700567 1.27735,8.26367 0.89267,1.97978 3.29571,2.48839 5.25781,2.55469 3.69,-0.0129 7.38092,-0.23059 11.04883,-0.29687 0.22537,3.69442 0.44217,7.3797 0.65429,11.09179 -7.3358,1.23294 -15.02478,2.70915 -22.3164,0.40235 -3.07132,-0.91035 -5.9228,-2.94658 -7.16016,-5.96485 -2.23168,-5.17043 -2.41254,-10.915512 -2.50976,-16.439453 -0.009,-10.031504 -8.6e-4,-20.019294 -0.006,-30.050781 -3.26576,-0.008 -6.54037,0.005 -9.81055,-0.0078 -0.009,-4.017019 -0.009,-8.043033 0,-12.064453 3.26576,-0.01285 6.54037,0.005 9.81055,-0.0078 0.0133,-6.186824 -0.003,-12.373723 0.01,-18.560547 z"
     id="path4190"
     inkscape:connector-curvature="0" /><path
     d="m 71.370421,38.756788 c 4.55174,-0.592174 9.32443,-0.433071 13.61102,1.285978 3.48672,1.378788 6.45197,4.078876 7.99868,7.512573 2.3996,5.170414 3.31879,10.915316 3.7828,16.571841 0.50379,7.512573 0.43308,15.11354 -0.60543,22.581924 -0.72916,4.463358 -1.76766,9.147661 -4.77269,12.638798 -3.05806,3.522078 -7.77772,5.037848 -12.28527,5.391388 -4.77269,0.34911 -9.81053,0 -14.09712,-2.25819 -2.5145,-1.33902 -4.64012,-3.43812 -5.877483,-6.010076 -1.511354,-3.080152 -2.342156,-6.451974 -2.925484,-9.810527 -1.758825,-10.694371 -2.183065,-21.74227 0.220958,-32.348263 0.989892,-4.003752 2.430539,-8.131251 5.347179,-11.136293 2.54544,-2.585191 6.09845,-3.919791 9.63378,-4.419153 z"
     id="path4196"
     inkscape:connector-curvature="0"
     style="fill:#41cd52;stroke-width:1.63979518" /></svg>