<?xml version="1.0" encoding="UTF-8" standalone="no"?>
<!-- Generator: Adobe Illustrator 14.0.0, SVG Export Plug-In . SVG Version: 6.00 Build 43363)  -->

<svg
   xmlns:dc="http://purl.org/dc/elements/1.1/"
   xmlns:cc="http://creativecommons.org/ns#"
   xmlns:rdf="http://www.w3.org/1999/02/22-rdf-syntax-ns#"
   xmlns:svg="http://www.w3.org/2000/svg"
   xmlns="http://www.w3.org/2000/svg"
   xmlns:sodipodi="http://sodipodi.sourceforge.net/DTD/sodipodi-0.dtd"
   xmlns:inkscape="http://www.inkscape.org/namespaces/inkscape"
   xml:space="preserve"
   height="150"
   viewBox="0 0 300 150.00001"
   width="300"
   version="1.1"
   y="0px"
   x="0px"
   enable-background="new 0 0 566.93 283.46"
   id="svg4136"
   inkscape:version="0.92.3 (2405546, 2018-03-11)"
   sodipodi:docname="qt-transp.svg"><defs
     id="defs4206" /><sodipodi:namedview
     pagecolor="#ffffff"
     bordercolor="#666666"
     borderopacity="1"
     objecttolerance="10"
     gridtolerance="10"
     guidetolerance="10"
     inkscape:pageopacity="0"
     inkscape:pageshadow="2"
     inkscape:window-width="1920"
     inkscape:window-height="1017"
     id="namedview4204"
     showgrid="true"
     inkscape:snap-bbox="true"
     inkscape:bbox-nodes="true"
     inkscape:zoom="4.9133334"
     inkscape:cx="112.92056"
     inkscape:cy="70.235161"
     inkscape:window-x="-8"
     inkscape:window-y="-8"
     inkscape:window-maximized="1"
     inkscape:current-layer="svg4136"
     inkscape:measure-start="80,85"
     inkscape:measure-end="212.132,85"
     inkscape:pagecheckerboard="false"><inkscape:grid
       type="xygrid"
       id="grid4243" /></sodipodi:namedview><metadata
     id="metadata4138"><rdf:RDF><cc:Work
         rdf:about=""><dc:format>image/svg+xml</dc:format><dc:type
           rdf:resource="http://purl.org/dc/dcmitype/StillImage" /><dc:title></dc:title></cc:Work></rdf:RDF></metadata><g
     transform="translate(0 -133)"
     display="none"
     id="g4140"><g
       display="inline"
       id="g4142"><path
         d="m376 133c-1.05 2.5 0.119 5.38 2.62 6.43-2.5-1.05-5.38 0.119-6.43 2.62 1.05-2.5-0.119-5.38-2.62-6.43 2.5 1.05 5.38-0.117 6.43-2.62z"
         id="path4144" /><path
         d="m325 115c-1.05 2.5 0.119 5.38 2.62 6.43-2.5-1.05-5.38 0.118-6.43 2.61 1.05-2.5-0.117-5.38-2.62-6.43 2.5 1.05 5.38-0.118 6.43-2.62z"
         id="path4146" /><path
         d="m286 118c-1.05 2.5 0.118 5.38 2.62 6.43-2.5-1.05-5.38 0.119-6.43 2.62 1.05-2.5-0.121-5.38-2.62-6.43 2.5 1.05 5.38-0.117 6.43-2.62z"
         id="path4148" /><path
         d="m239 125c-1.06 2.5 0.116 5.38 2.62 6.43-2.5-1.05-5.38 0.118-6.43 2.62 1.05-2.5-0.119-5.38-2.62-6.43 2.5 1.05 5.38-0.118 6.43-2.62z"
         id="path4150" /><path
         d="m221 156c-1.05 2.5 0.119 5.38 2.62 6.43-2.5-1.06-5.38 0.117-6.43 2.61 1.05-2.5-0.118-5.38-2.62-6.43 2.5 1.05 5.38-0.116 6.43-2.62z"
         id="path4152" /><path
         d="m174 147c-1.05 2.5 0.119 5.38 2.62 6.43-2.5-1.05-5.38 0.118-6.43 2.62 1.05-2.5-0.121-5.38-2.62-6.43 2.5 1.05 5.38-0.117 6.43-2.62z"
         id="path4154" /><path
         d="m172 107c-1.05 2.5 0.119 5.38 2.62 6.43-2.5-1.05-5.38 0.12-6.43 2.62 1.05-2.5-0.118-5.38-2.62-6.43 2.5 1.05 5.38-0.117 6.43-2.62z"
         id="path4156" /><path
         d="m245 147-1.25 7c0.92-0.658 2.37-0.921 3.12-0.921 4.37 0 6.67 3.25 6.67 7.16 0 9.99-9.66 12-17 8.97l3.91-22.2h4.5zm-3.45 19.3c0.789 0.296 1.58 0.362 2.3 0.362 3.16-0.033 5.19-2.73 5.19-5.95 0-2.5-1.44-3.68-3.58-3.68-0.625 0-1.54 0.164-2.33 0.658l-1.58 8.61z"
         id="path4158" /><path
         d="m261 171c-3.88 0.624-6.67-0.756-5.85-5.36l3.12-17.7h4.5l-3.12 17.7c-0.164 0.854 0.098 1.84 2 1.68l-0.656 3.68z"
         id="path4160" /><path
         d="m263 163 1.71-9.63h4.5l-1.68 9.43c-0.592 3.32 2.53 4.47 5.85 3.45l2.27-12.9h4.5l-2.79 15.9c-6.31 2.33-15.8 1.97-14.4-6.31z"
         id="path4162" /><path
         d="m295 168c-2.4 2.2-4.77 3.12-7.2 3.12-4.9 0-7.13-3.55-7.13-7.26 0-4.9 3.94-10.1 10.2-10.1 4.24-0.033 6.97 2.66 6.97 6.74 0 1.58-0.395 2.63-1.05 3.71h-11.7c-0.065 3.75 4.7 3.98 7.86 1.54l2.14 2.24zm-1.54-7.23c0.197-2.4-1.58-3.12-3.29-3.12-1.74 0-3.78 0.887-4.54 3.12h7.82z"
         id="path4164" /><g
         fill="#58595b"
         id="g4166"><path
           d="m310 165c0 3.65-3.88 5.39-6.54 5.39-1.97 0-3.71-0.821-4.67-2.4 0.395-0.328 0.888-0.756 1.22-1.05 1.51 2.76 7.23 2.66 8.25-1.38 0.296-1.87-1.81-2.83-3.25-3.12-2.46-0.428-4.57-1.78-4.11-4.5 0.854-4.9 7.76-6.11 10.4-3.16l-1.22 1.12c-1.84-2.17-7.53-1.31-7.53 2.37 0 1.68 1.77 2.4 3.06 2.66 2.27 0.492 4.4 1.68 4.4 4.08z"
           id="path4168" /><path
           d="m311 175c1.87 0.066 2.76-0.592 3.52-1.94l1.41-2.53-3.88-16.7h1.84l3.25 15 8.25-15h1.84l-11.2 19.8c-1.22 2.24-2.89 2.79-4.77 2.79h-0.525l0.262-1.42z"
           id="path4170" /><path
           d="m336 165c0 3.65-3.88 5.39-6.54 5.39-1.97 0-3.72-0.821-4.67-2.4 0.395-0.328 0.888-0.756 1.22-1.05 1.51 2.76 7.23 2.66 8.25-1.38 0.296-1.87-1.81-2.83-3.25-3.12-2.46-0.428-4.57-1.78-4.11-4.5 0.854-4.9 7.76-6.11 10.4-3.16l-1.22 1.12c-1.84-2.17-7.53-1.31-7.53 2.37 0 1.68 1.78 2.4 3.06 2.66 2.27 0.492 4.4 1.68 4.4 4.08z"
           id="path4172" /><path
           d="m343 171c-2.93 0.133-4.83-1.41-4.24-4.67l1.87-10.7h-2.47l0.264-1.41h2.46l0.689-4.08 1.74-0.362-0.756 4.44h3.39l-0.264 1.41h-3.38l-1.87 10.7c-0.362 1.97 0.723 3.15 2.86 3.12l-0.295 1.54z"
           id="path4174" /><path
           d="m358 167 1.12 0.888c-1.91 1.94-4.34 2.89-6.84 2.89-5.36 0-7.26-4.57-6.51-8.71 0.756-4.17 4.27-8.38 9.5-8.41 4.01-0.032 6.48 2.89 6.48 6.7 0 1.68-0.296 1.94-0.395 2.37h-14.1c-0.395 3.65 1.38 6.44 5.32 6.44 1.88 0 3.98-0.689 5.42-2.17zm2.14-5.72c0.461-3.58-1.68-5.98-5.13-6.05-3.88 0.033-6.48 2.7-7.53 6.05h12.7z"
           id="path4176" /><path
           d="m376 157c1.94-2.93 4.21-3.39 6.41-3.39 3.58 0 6.15 1.94 5.26 7l-1.74 9.93h-1.71l1.74-9.93c0.689-3.88-1.28-5.46-3.81-5.46-2.6 0-5.19 1.18-5.92 5.13l-1.81 10.3h-1.64l1.81-10.3c1.18-5-4.64-6.15-8.71-4.64l-2.63 14.9h-1.71l2.83-16.1c3.68-1.41 10.6-1.71 11.6 2.53z"
           id="path4178" /><path
           d="m400 165c0 3.65-3.88 5.39-6.54 5.39-1.97 0-3.71-0.822-4.67-2.4 0.393-0.328 0.887-0.756 1.22-1.05 1.51 2.76 7.23 2.66 8.25-1.38 0.297-1.87-1.81-2.83-3.25-3.12-2.46-0.427-4.57-1.77-4.11-4.5 0.854-4.9 7.76-6.11 10.4-3.16l-1.22 1.12c-1.84-2.17-7.53-1.31-7.53 2.37 0 1.68 1.78 2.4 3.06 2.66 2.27 0.493 4.4 1.68 4.4 4.08z"
           id="path4180" /></g></g><rect
       display="inline"
       height="28.3"
       width="28.3"
       y="10"
       x="539"
       id="rect4182" /><rect
       display="inline"
       height="28.3"
       width="28.3"
       y="40.3"
       x="539"
       fill="#58595b"
       id="rect4184" /></g><path
     style="fill:#41cd52;stroke-width:1.63979518"
     d="M 68.855469 0.1953125 C 59.486849 9.5197454 50.117398 18.845243 40.792969 28.037109 L 40.792969 150.00586 L 216.67578 150.00586 L 244.95898 121.72266 L 244.95898 0.1953125 L 69.076172 0.1953125 L 68.855469 0.1953125 z M 117.9082 26.269531 C 125.37658 26.362371 133.24359 27.674292 139.47461 32.146484 C 143.98215 35.315014 146.89737 40.189448 148.8418 45.271484 C 152.0015 53.579506 152.93105 62.550349 153.03711 71.388672 C 153.05041 80.271183 152.64825 89.373848 149.70508 97.814453 C 147.73414 103.55935 143.95922 108.68613 139.00977 112.26562 C 142.57161 118.05474 146.21273 123.75583 149.74805 129.54492 C 145.2847 131.60868 140.82199 133.68635 136.31445 135.73242 C 132.50071 129.45722 128.71381 123.13653 124.86914 116.86133 C 119.69872 117.70981 114.3943 117.64479 109.17969 117.07031 C 102.94867 116.32346 96.586415 114.42334 91.769531 110.2207 C 88.075113 107.02123 85.758868 102.53025 84.167969 97.978516 C 81.569504 90.289171 80.871268 82.070201 80.751953 74.027344 C 80.690083 65.2774 81.247039 56.43937 83.880859 48.042969 C 85.91809 41.723578 89.271938 35.447205 94.972656 31.779297 L 94.927734 31.705078 C 101.99839 27.285908 109.95371 26.181153 117.9082 26.269531 z M 170.9375 31.439453 C 175.62181 31.434653 180.30592 31.434653 184.99023 31.439453 C 185.00353 37.626277 184.987 43.813192 185 50 C 191.01006 50.008 196.97554 49.999106 202.94141 50.003906 C 202.83977 54.025343 202.73013 58.046922 202.61523 62.068359 C 196.64937 62.081209 190.6397 62.063372 184.67383 62.076172 C 184.68703 72.240243 184.64231 82.405525 184.69531 92.525391 C 184.81021 95.305055 184.74853 98.225958 185.97266 100.78906 C 186.86533 102.76884 189.26837 103.27745 191.23047 103.34375 C 194.92047 103.33085 198.61139 103.11316 202.2793 103.04688 C 202.50467 106.7413 202.72147 110.42658 202.93359 114.13867 C 195.59779 115.37161 187.90881 116.84782 180.61719 114.54102 C 177.54587 113.63067 174.69439 111.59444 173.45703 108.57617 C 171.22535 103.40574 171.04449 97.66066 170.94727 92.136719 C 170.93827 82.105215 170.94641 72.117425 170.94141 62.085938 C 167.67565 62.077937 164.40104 62.090925 161.13086 62.078125 C 161.12186 58.061106 161.12186 54.035092 161.13086 50.013672 C 164.39662 50.000822 167.67123 50.018659 170.94141 50.005859 C 170.95471 43.819035 170.93817 37.632136 170.95117 31.445312 L 170.9375 31.439453 z "
     id="path4190" /><path
     d="m 112.16339,38.952101 c 4.55174,-0.592174 9.32443,-0.433071 13.61102,1.285977 3.48672,1.378789 6.45197,4.078877 7.99868,7.512573 2.3996,5.170414 3.31879,10.915316 3.7828,16.571841 0.50379,7.512573 0.43308,15.11354 -0.60543,22.581924 -0.72916,4.463358 -1.76766,9.147661 -4.77269,12.638798 -3.05806,3.522076 -7.77772,5.037846 -12.28527,5.391386 -4.77269,0.34911 -9.81053,0 -14.09712,-2.25819 -2.5145,-1.33902 -4.64012,-3.438118 -5.877483,-6.010073 -1.511354,-3.080152 -2.342156,-6.451974 -2.925484,-9.810527 -1.758825,-10.694371 -2.183065,-21.74227 0.220958,-32.348263 0.989892,-4.003752 2.430539,-8.131251 5.347179,-11.136293 2.54544,-2.585191 6.09845,-3.919791 9.63378,-4.419153 z"
     id="path4196"
     inkscape:connector-curvature="0"
     style="fill:#41cd52;stroke-width:1.63979518" /></svg>