<?xml version="1.0" encoding="UTF-8" standalone="no"?>
<!-- Created with Inkscape (http://www.inkscape.org/) -->

<svg
   xmlns:dc="http://purl.org/dc/elements/1.1/"
   xmlns:cc="http://creativecommons.org/ns#"
   xmlns:rdf="http://www.w3.org/1999/02/22-rdf-syntax-ns#"
   xmlns:svg="http://www.w3.org/2000/svg"
   xmlns="http://www.w3.org/2000/svg"
   xmlns:xlink="http://www.w3.org/1999/xlink"
   xmlns:sodipodi="http://sodipodi.sourceforge.net/DTD/sodipodi-0.dtd"
   xmlns:inkscape="http://www.inkscape.org/namespaces/inkscape"
   version="1.1"
   width="737.81244"
   height="370.98557"
   id="svg4244"
   sodipodi:docname="SDL_Mod.svg"
   inkscape:version="0.92.3 (2405546, 2018-03-11)">
  <sodipodi:namedview
     pagecolor="#ffffff"
     bordercolor="#666666"
     borderopacity="1"
     objecttolerance="10"
     gridtolerance="10"
     guidetolerance="10"
     inkscape:pageopacity="0"
     inkscape:pageshadow="2"
     inkscape:window-width="1920"
     inkscape:window-height="1017"
     id="namedview14"
     showgrid="false"
     inkscape:zoom="0.52975864"
     inkscape:cx="362.44774"
     inkscape:cy="-22.597343"
     inkscape:window-x="-8"
     inkscape:window-y="-8"
     inkscape:window-maximized="1"
     inkscape:current-layer="svg4244" />
  <defs
     id="defs3">
    <linearGradient
       id="linearGradient4212">
      <stop
         id="stop4214"
         style="stop-color:#656f71;stop-opacity:1"
         offset="0" />
      <stop
         id="stop4216"
         style="stop-color:#d3d4cf;stop-opacity:1"
         offset="1" />
    </linearGradient>
    <radialGradient
       cx="204.87476"
       cy="-243.96365"
       r="25.724852"
       fx="204.87476"
       fy="-243.96365"
       id="radialGradient4242"
       xlink:href="#linearGradient4212"
       gradientUnits="userSpaceOnUse"
       gradientTransform="matrix(-4.2279887,-8.2514497,14.012795,-7.1800647,4974.4857,198.67023)"
       spreadMethod="pad" />
  </defs>
  <metadata
     id="metadata4">
    <rdf:RDF>
      <cc:Work
         rdf:about="">
        <dc:format>image/svg+xml</dc:format>
        <dc:type
           rdf:resource="http://purl.org/dc/dcmitype/StillImage" />
        <dc:title />
      </cc:Work>
    </rdf:RDF>
  </metadata>
  <path
     inkscape:connector-curvature="0"
     style="fill:#173556;fill-opacity:1"
     id="path4198"
     d="m 343.88724,370.63384 c -84.77169,-2.90348 -165.40673,-22.0772 -228.06456,-54.22993 -5.90389,-3.02955 -18.78665,-10.19918 -18.78665,-10.45537 0,-0.0873 2.04536,0.87679 4.54514,2.15339 30.68742,15.66602 69.26014,29.06041 108.17415,37.56341 61.75833,13.49448 129.42492,17.07899 195.74372,10.36918 62.5598,-6.32959 120.9835,-21.6879 170.8968,-44.92499 44.8602,-20.88454 80.7806,-47.5952 104.6682,-77.83206 36.7359,-46.49985 41.6542,-100.35598 13.5341,-148.19705 C 676.39144,54.10538 645.99724,26.81113 604.28194,3.97585 600.28704,1.78908 597.15254,0 597.31614,0 c 0.5468,0 18.1975,8.50972 23.7232,11.43738 26.9527,14.2799 48.3761,29.47515 67.0767,47.57643 23.4878,22.73554 38.2446,46.16059 45.4595,72.16304 6.6724,24.04825 5.4266,50.72 -3.4739,74.37222 -11.9732,31.81731 -36.4653,61.10393 -72.2973,86.44965 -58.2008,41.16847 -141.5395,68.43618 -233.9227,76.5377 -25.0722,2.19869 -54.5058,2.97048 -79.9944,2.09742 z" />
  <path
     inkscape:connector-curvature="0"
     style="font-variant:normal;font-weight:bold;font-size:183.04396057px;font-family:Tahoma;-inkscape-font-specification:Tahoma-Bold;writing-mode:lr-tb;fill:#173556;fill-opacity:1;fill-rule:nonzero;stroke:none"
     id="path4093"
     d="M 553.94894,236.30777 H 404.15804 V 23.17606 h 56.3599 v 172.48069 h 93.431 z M 389.47214,129.95654 c -2e-4,19.84853 -4.5713,37.62146 -13.7132,53.31878 -9.1426,15.69745 -20.6958,27.74484 -34.66,36.14224 -11.6539,7.15695 -24.3376,11.76109 -38.0506,13.81286 -13.7132,2.05162 -28.3056,3.07735 -43.7769,3.07735 H 189.04755 V 23.17606 h 69.62115 c 15.77264,2.6e-4 30.54074,0.954 44.30434,2.86276 13.7634,1.90866 26.6729,6.53687 38.7287,13.88433 14.768,8.97019 26.4216,21.06516 34.9613,36.28537 8.5391,15.2204 12.8089,33.13648 12.8091,53.74802 z m -57.867,-0.42981 c -1e-4,-14.02745 -2.5368,-26.02718 -7.6102,-35.99916 -5.0735,-9.97177 -12.8845,-17.77272 -23.4329,-23.40298 -7.6354,-4.0077 -15.6475,-6.20243 -24.036,-6.5843 -8.38873,-0.38113 -18.40996,-0.57289 -30.06368,-0.57289 h -1.0549 v 133.40406 h 1.0549 c 12.65829,1.4e-4 23.33259,-0.21399 32.02278,-0.6439 8.69,-0.42983 16.953,-2.98193 24.7892,-7.65786 9.2427,-5.5345 16.2751,-13.16856 21.0973,-22.90191 4.8222,-9.73326 7.2334,-21.61369 7.2335,-35.64122 z M 81.52618,240.17229 c -17.17941,0 -32.27405,-1.57449 -45.28392,-4.72343 C 23.23223,232.29972 11.15144,228.38729 0,223.71156 v -50.67074 h 5.12373 c 11.25184,9.06547 23.65907,16.03148 37.22169,20.89806 13.56247,4.86668 26.72318,7.30004 39.48213,7.30004 3.21476,0 7.45935,-0.33384 12.73366,-1.00135 5.27431,-0.66756 9.5188,-1.7176 12.73379,-3.14896 3.91788,-1.62221 7.23325,-3.88854 9.94586,-6.79914 2.71243,-2.91032 4.0687,-6.75116 4.06884,-11.52259 -1.4e-4,-5.34367 -2.21041,-9.68554 -6.6306,-13.02543 -4.42059,-3.3398 -9.69491,-5.77317 -15.823,-7.30004 -7.63528,-1.9084 -15.79803,-3.72154 -24.48802,-5.43922 C 65.67793,151.28461 57.5656,149.18528 50.03091,146.70412 32.65063,140.88329 20.19321,133.05853 12.65844,123.22962 5.12366,113.40098 1.35628,101.09113 1.35628,86.30014 c 0,-19.94364 8.89098,-36.09428 26.67305,-48.45205 17.78203,-12.35728 39.98443,-18.53606 66.60722,-18.5363 13.36163,2.4e-4 26.6479,1.28842 39.8589,3.86472 13.2108,2.57668 25.04036,6.05971 35.48874,10.44904 v 48.66676 h -4.97287 C 156.67267,75.5172 146.50079,69.7918 134.49545,65.1158 122.49,60.44015 110.15813,58.10218 97.49984,58.10208 c -4.92288,10e-5 -9.34321,0.33385 -13.26124,1.00132 -3.91813,0.66879 -8.03707,1.95638 -12.3569,3.86477 -3.51638,1.52687 -6.55539,3.7932 -9.11715,6.79898 -2.56183,3.006 -3.84281,6.36981 -3.84267,10.09117 -1.4e-4,5.43935 2.03431,9.75731 6.10318,12.95397 4.06862,3.1968 11.92995,6.08349 23.58381,8.65986 7.53455,1.6223 14.79312,3.19678 21.77542,4.72345 6.98207,1.5269 14.44141,3.62633 22.37827,6.29807 15.57163,5.34392 27.14999,12.52465 34.73514,21.54214 7.58483,9.01775 11.37736,20.92208 11.37746,35.71286 -1e-4,21.18446 -8.76551,38.21773 -26.29625,51.10013 -17.531,12.88234 -41.21531,19.32349 -71.05273,19.32349 z" />
</svg>
